<?xml version="1.0" encoding="UTF-8" standalone="no"?>
<!DOCTYPE svg PUBLIC "-//W3C//DTD SVG 1.1//EN"
 "http://www.w3.org/Graphics/SVG/1.1/DTD/svg11.dtd">
<!-- Generated by graphviz version 2.40.1 (20161225.0304)
 -->
<!-- Title: %3 Pages: 1 -->
<svg width="314pt" height="260pt"
 viewBox="0.00 0.00 314.00 260.00" xmlns="http://www.w3.org/2000/svg" xmlns:xlink="http://www.w3.org/1999/xlink">
<g id="graph0" class="graph" transform="scale(1 1) rotate(0) translate(4 256)">
<title>%3</title>
<polygon fill="#ffffff" stroke="transparent" points="-4,4 -4,-256 310,-256 310,4 -4,4"/>
<!-- 0 -->
<g id="node1" class="node">
<title>0</title>
<ellipse fill="none" stroke="#000000" cx="135" cy="-234" rx="27" ry="18"/>
<text text-anchor="middle" x="135" y="-229.8" font-family="Times,serif" font-size="14.00" fill="#000000">0</text>
</g>
<!-- 1 -->
<g id="node2" class="node">
<title>1</title>
<ellipse fill="none" stroke="#000000" cx="99" cy="-162" rx="27" ry="18"/>
<text text-anchor="middle" x="99" y="-157.8" font-family="Times,serif" font-size="14.00" fill="#000000">1</text>
</g>
<!-- 0&#45;&#45;1 -->
<g id="edge1" class="edge">
<title>0&#45;&#45;1</title>
<path fill="none" stroke="#000000" d="M126.29,-216.57C120.63,-205.25 113.28,-190.56 107.63,-179.27"/>
</g>
<!-- 20 -->
<g id="node3" class="node">
<title>20</title>
<ellipse fill="none" stroke="#000000" cx="171" cy="-162" rx="27" ry="18"/>
<text text-anchor="middle" x="171" y="-157.8" font-family="Times,serif" font-size="14.00" fill="#000000">20</text>
</g>
<!-- 0&#45;&#45;20 -->
<g id="edge2" class="edge">
<title>0&#45;&#45;20</title>
<path fill="none" stroke="#000000" d="M143.71,-216.57C149.37,-205.25 156.72,-190.56 162.37,-179.27"/>
</g>
<!-- t -->
<g id="node4" class="node">
<title>t</title>
<ellipse fill="none" stroke="#000000" cx="27" cy="-90" rx="27" ry="18"/>
<text text-anchor="middle" x="27" y="-85.8" font-family="Times,serif" font-size="14.00" fill="#000000">t</text>
</g>
<!-- 1&#45;&#45;t -->
<g id="edge3" class="edge">
<title>1&#45;&#45;t</title>
<path fill="none" stroke="#000000" d="M83.731,-146.73C71.512,-134.51 54.46,-117.46 42.247,-105.25"/>
</g>
<!-- b -->
<g id="node5" class="node">
<title>b</title>
<ellipse fill="none" stroke="#000000" cx="99" cy="-90" rx="27" ry="18"/>
<text text-anchor="middle" x="99" y="-85.8" font-family="Times,serif" font-size="14.00" fill="#000000">b</text>
</g>
<!-- 1&#45;&#45;b -->
<g id="edge4" class="edge">
<title>1&#45;&#45;b</title>
<path fill="none" stroke="#000000" d="M99,-143.83C99,-133 99,-119.29 99,-108.41"/>
</g>
<!-- a -->
<g id="node6" class="node">
<title>a</title>
<ellipse fill="none" stroke="#000000" cx="171" cy="-90" rx="27" ry="18"/>
<text text-anchor="middle" x="171" y="-85.8" font-family="Times,serif" font-size="14.00" fill="#000000">a</text>
</g>
<!-- 20&#45;&#45;a -->
<g id="edge5" class="edge">
<title>20&#45;&#45;a</title>
<path fill="none" stroke="#000000" d="M171,-143.83C171,-133 171,-119.29 171,-108.41"/>
</g>
<!-- 30 -->
<g id="node7" class="node">
<title>30</title>
<ellipse fill="none" stroke="#000000" cx="243" cy="-90" rx="27" ry="18"/>
<text text-anchor="middle" x="243" y="-85.8" font-family="Times,serif" font-size="14.00" fill="#000000">30</text>
</g>
<!-- 20&#45;&#45;30 -->
<g id="edge6" class="edge">
<title>20&#45;&#45;30</title>
<path fill="none" stroke="#000000" d="M186.27,-146.73C198.49,-134.51 215.54,-117.46 227.75,-105.25"/>
</g>
<!-- c -->
<g id="node8" class="node">
<title>c</title>
<ellipse fill="none" stroke="#000000" cx="207" cy="-18" rx="27" ry="18"/>
<text text-anchor="middle" x="207" y="-13.8" font-family="Times,serif" font-size="14.00" fill="#000000">c</text>
</g>
<!-- 30&#45;&#45;c -->
<g id="edge7" class="edge">
<title>30&#45;&#45;c</title>
<path fill="none" stroke="#000000" d="M234.29,-72.571C228.63,-61.251 221.28,-46.557 215.63,-35.269"/>
</g>
<!-- e -->
<g id="node9" class="node">
<title>e</title>
<ellipse fill="none" stroke="#000000" cx="279" cy="-18" rx="27" ry="18"/>
<text text-anchor="middle" x="279" y="-13.8" font-family="Times,serif" font-size="14.00" fill="#000000">e</text>
</g>
<!-- 30&#45;&#45;e -->
<g id="edge8" class="edge">
<title>30&#45;&#45;e</title>
<path fill="none" stroke="#000000" d="M251.71,-72.571C257.37,-61.251 264.72,-46.557 270.37,-35.269"/>
</g>
</g>
</svg>
