<?xml version="1.0" encoding="UTF-8" standalone="no"?>
<!DOCTYPE svg PUBLIC "-//W3C//DTD SVG 1.1//EN"
 "http://www.w3.org/Graphics/SVG/1.1/DTD/svg11.dtd">
<!-- Generated by graphviz version 2.40.1 (20161225.0304)
 -->
<!-- Title: %3 Pages: 1 -->
<svg width="351pt" height="260pt"
 viewBox="0.00 0.00 351.50 260.00" xmlns="http://www.w3.org/2000/svg" xmlns:xlink="http://www.w3.org/1999/xlink">
<g id="graph0" class="graph" transform="scale(1 1) rotate(0) translate(4 256)">
<title>%3</title>
<polygon fill="#ffffff" stroke="transparent" points="-4,4 -4,-256 347.496,-256 347.496,4 -4,4"/>
<!-- 0 -->
<g id="node1" class="node">
<title>0</title>
<ellipse fill="none" stroke="#000000" cx="152.496" cy="-234" rx="27" ry="18"/>
<text text-anchor="middle" x="152.496" y="-229.8" font-family="Times,serif" font-size="14.00" fill="#000000">0</text>
</g>
<!-- 1 -->
<g id="node2" class="node">
<title>1</title>
<ellipse fill="none" stroke="#000000" cx="111.496" cy="-162" rx="27" ry="18"/>
<text text-anchor="middle" x="111.496" y="-157.8" font-family="Times,serif" font-size="14.00" fill="#000000">1</text>
</g>
<!-- 0&#45;&#45;1 -->
<g id="edge1" class="edge">
<title>0&#45;&#45;1</title>
<path fill="none" stroke="#000000" d="M142.786,-216.94C136.246,-205.46 127.666,-190.39 121.146,-178.94"/>
</g>
<!-- 20 -->
<g id="node3" class="node">
<title>20</title>
<ellipse fill="none" stroke="#000000" cx="193.496" cy="-162" rx="27" ry="18"/>
<text text-anchor="middle" x="193.496" y="-157.8" font-family="Times,serif" font-size="14.00" fill="#000000">20</text>
</g>
<!-- 0&#45;&#45;20 -->
<g id="edge2" class="edge">
<title>0&#45;&#45;20</title>
<path fill="none" stroke="#000000" d="M162.216,-216.94C168.756,-205.46 177.336,-190.39 183.856,-178.94"/>
</g>
<!-- (&#39;t&#39;, 1) -->
<g id="node4" class="node">
<title>(&#39;t&#39;, 1)</title>
<ellipse fill="none" stroke="#000000" cx="30.5" cy="-90" rx="30.5" ry="18"/>
<text text-anchor="middle" x="30.5" y="-85.8" font-family="Times,serif" font-size="14.00" fill="#000000">(&#39;t&#39;, 1)</text>
</g>
<!-- 1&#45;&#45;(&#39;t&#39;, 1) -->
<g id="edge3" class="edge">
<title>1&#45;&#45;(&#39;t&#39;, 1)</title>
<path fill="none" stroke="#000000" d="M95.108,-147.43C81.24,-135.1 61.442,-117.5 47.425,-105.04"/>
</g>
<!-- (&#39;b&#39;, 1) -->
<g id="node5" class="node">
<title>(&#39;b&#39;, 1)</title>
<ellipse fill="none" stroke="#000000" cx="111.496" cy="-90" rx="32.5" ry="18"/>
<text text-anchor="middle" x="111.496" y="-85.8" font-family="Times,serif" font-size="14.00" fill="#000000">(&#39;b&#39;, 1)</text>
</g>
<!-- 1&#45;&#45;(&#39;b&#39;, 1) -->
<g id="edge4" class="edge">
<title>1&#45;&#45;(&#39;b&#39;, 1)</title>
<path fill="none" stroke="#000000" d="M111.496,-143.83C111.496,-133 111.496,-119.29 111.496,-108.41"/>
</g>
<!-- (&#39;a&#39;, 1) -->
<g id="node6" class="node">
<title>(&#39;a&#39;, 1)</title>
<ellipse fill="none" stroke="#000000" cx="193.496" cy="-90" rx="32" ry="18"/>
<text text-anchor="middle" x="193.496" y="-85.8" font-family="Times,serif" font-size="14.00" fill="#000000">(&#39;a&#39;, 1)</text>
</g>
<!-- 20&#45;&#45;(&#39;a&#39;, 1) -->
<g id="edge5" class="edge">
<title>20&#45;&#45;(&#39;a&#39;, 1)</title>
<path fill="none" stroke="#000000" d="M193.496,-143.83C193.496,-133 193.496,-119.29 193.496,-108.41"/>
</g>
<!-- 30 -->
<g id="node7" class="node">
<title>30</title>
<ellipse fill="none" stroke="#000000" cx="270.496" cy="-90" rx="27" ry="18"/>
<text text-anchor="middle" x="270.496" y="-85.8" font-family="Times,serif" font-size="14.00" fill="#000000">30</text>
</g>
<!-- 20&#45;&#45;30 -->
<g id="edge6" class="edge">
<title>20&#45;&#45;30</title>
<path fill="none" stroke="#000000" d="M209.456,-147.08C222.666,-134.72 241.356,-117.25 254.566,-104.9"/>
</g>
<!-- (&#39;c&#39;, 1) -->
<g id="node8" class="node">
<title>(&#39;c&#39;, 1)</title>
<ellipse fill="none" stroke="#000000" cx="229.496" cy="-18" rx="32" ry="18"/>
<text text-anchor="middle" x="229.496" y="-13.8" font-family="Times,serif" font-size="14.00" fill="#000000">(&#39;c&#39;, 1)</text>
</g>
<!-- 30&#45;&#45;(&#39;c&#39;, 1) -->
<g id="edge7" class="edge">
<title>30&#45;&#45;(&#39;c&#39;, 1)</title>
<path fill="none" stroke="#000000" d="M260.786,-72.937C254.346,-61.626 245.916,-46.828 239.436,-35.441"/>
</g>
<!-- (&#39;e&#39;, 1) -->
<g id="node9" class="node">
<title>(&#39;e&#39;, 1)</title>
<ellipse fill="none" stroke="#000000" cx="311.496" cy="-18" rx="32" ry="18"/>
<text text-anchor="middle" x="311.496" y="-13.8" font-family="Times,serif" font-size="14.00" fill="#000000">(&#39;e&#39;, 1)</text>
</g>
<!-- 30&#45;&#45;(&#39;e&#39;, 1) -->
<g id="edge8" class="edge">
<title>30&#45;&#45;(&#39;e&#39;, 1)</title>
<path fill="none" stroke="#000000" d="M280.216,-72.937C286.656,-61.626 295.086,-46.828 301.566,-35.441"/>
</g>
</g>
</svg>
