<?xml version="1.0" encoding="UTF-8" standalone="no"?>
<!DOCTYPE svg PUBLIC "-//W3C//DTD SVG 1.1//EN"
 "http://www.w3.org/Graphics/SVG/1.1/DTD/svg11.dtd">
<!-- Generated by graphviz version 2.40.1 (20161225.0304)
 -->
<!-- Title: %3 Pages: 1 -->
<svg width="725pt" height="192pt"
 viewBox="0.00 0.00 725.22 191.76" xmlns="http://www.w3.org/2000/svg" xmlns:xlink="http://www.w3.org/1999/xlink">
<g id="graph0" class="graph" transform="scale(1 1) rotate(0) translate(4 187.76)">
<title>%3</title>
<polygon fill="#ffffff" stroke="transparent" points="-4,4 -4,-187.76 721.222,-187.76 721.222,4 -4,4"/>
<!-- 0 -->
<g id="node1" class="node">
<title>0</title>
<ellipse fill="none" stroke="#000000" cx="474.232" cy="-162" rx="27" ry="18"/>
<text text-anchor="middle" x="474.232" y="-157.8" font-family="Times,serif" font-size="14.00" fill="#000000">0</text>
</g>
<!-- 0&#45;&#45;0 -->
<g id="edge1" class="edge">
<title>0&#45;&#45;0</title>
<path fill="none" stroke="#000000" d="M501.472,-163.5C511.252,-163.53 519.232,-163.03 519.232,-162 519.232,-160.97 511.252,-160.47 501.472,-160.5"/>
</g>
<!-- 0&#45;&#45;0 -->
<g id="edge2" class="edge">
<title>0&#45;&#45;0</title>
<path fill="none" stroke="#000000" d="M501.102,-164.72C519.362,-165.52 537.232,-164.61 537.232,-162 537.232,-159.39 519.362,-158.48 501.102,-159.28"/>
</g>
<!-- 0&#45;&#45;0 -->
<g id="edge3" class="edge">
<title>0&#45;&#45;0</title>
<path fill="none" stroke="#000000" d="M500.782,-165.58C526.722,-167.55 555.232,-166.36 555.232,-162 555.232,-157.64 526.722,-156.45 500.782,-158.42"/>
</g>
<!-- 0&#45;&#45;0 -->
<g id="edge4" class="edge">
<title>0&#45;&#45;0</title>
<path fill="none" stroke="#000000" d="M500.592,-166.21C533.752,-169.59 573.232,-168.19 573.232,-162 573.232,-155.81 533.752,-154.41 500.592,-157.79"/>
</g>
<!-- 0&#45;&#45;0 -->
<g id="edge5" class="edge">
<title>0&#45;&#45;0</title>
<path fill="none" stroke="#000000" d="M500.382,-166.68C540.482,-171.63 591.232,-170.07 591.232,-162 591.232,-153.93 540.482,-152.37 500.382,-157.32"/>
</g>
<!-- 0&#45;&#45;0 -->
<g id="edge6" class="edge">
<title>0&#45;&#45;0</title>
<path fill="none" stroke="#000000" d="M500.402,-167.08C547.222,-173.65 609.232,-171.96 609.232,-162 609.232,-152.04 547.222,-150.35 500.402,-156.92"/>
</g>
<!-- 0&#45;&#45;0 -->
<g id="edge7" class="edge">
<title>0&#45;&#45;0</title>
<path fill="none" stroke="#000000" d="M500.182,-167.37C553.602,-175.68 627.232,-173.89 627.232,-162 627.232,-150.11 553.602,-148.32 500.182,-156.63"/>
</g>
<!-- 0&#45;&#45;0 -->
<g id="edge8" class="edge">
<title>0&#45;&#45;0</title>
<path fill="none" stroke="#000000" d="M499.962,-167.6C559.882,-177.71 645.232,-175.84 645.232,-162 645.232,-148.16 559.882,-146.29 499.962,-156.4"/>
</g>
<!-- 0&#45;&#45;0 -->
<g id="edge9" class="edge">
<title>0&#45;&#45;0</title>
<path fill="none" stroke="#000000" d="M499.992,-167.83C566.332,-179.73 663.232,-177.79 663.232,-162 663.232,-146.21 566.332,-144.27 499.992,-156.17"/>
</g>
<!-- 0&#45;&#45;0 -->
<g id="edge10" class="edge">
<title>0&#45;&#45;0</title>
<path fill="none" stroke="#000000" d="M500.032,-168.03C572.722,-181.74 681.232,-179.73 681.232,-162 681.232,-144.27 572.722,-142.26 500.032,-155.97"/>
</g>
<!-- 0&#45;&#45;0 -->
<g id="edge11" class="edge">
<title>0&#45;&#45;0</title>
<path fill="none" stroke="#000000" d="M499.682,-168.12C578.682,-183.76 699.232,-181.72 699.232,-162 699.232,-142.28 578.682,-140.24 499.682,-155.88"/>
</g>
<!-- . -->
<g id="node2" class="node">
<title>.</title>
<ellipse fill="none" stroke="#000000" cx="194.232" cy="-18" rx="27" ry="18"/>
<text text-anchor="middle" x="194.232" y="-13.8" font-family="Times,serif" font-size="14.00" fill="#000000">.</text>
</g>
<!-- 0&#45;&#45;. -->
<g id="edge12" class="edge">
<title>0&#45;&#45;.</title>
<path fill="none" stroke="#000000" d="M446.972,-161.33C237.792,-151.19 1.311,-30.048 167.128,-18.831"/>
</g>
<!-- 0&#45;&#45;. -->
<g id="edge13" class="edge">
<title>0&#45;&#45;.</title>
<path fill="none" stroke="#000000" d="M447.192,-161.23C254.582,-150.48 21.671,-31.33 166.987,-19.025"/>
</g>
<!-- 0&#45;&#45;. -->
<g id="edge14" class="edge">
<title>0&#45;&#45;.</title>
<path fill="none" stroke="#000000" d="M447.112,-161.08C270.792,-149.52 42.233,-32.681 167.244,-19.255"/>
</g>
<!-- 0&#45;&#45;. -->
<g id="edge15" class="edge">
<title>0&#45;&#45;.</title>
<path fill="none" stroke="#000000" d="M447.142,-160.9C287.092,-148.5 64.047,-34.701 167.141,-19.643"/>
</g>
<!-- 0&#45;&#45;. -->
<g id="edge16" class="edge">
<title>0&#45;&#45;.</title>
<path fill="none" stroke="#000000" d="M447.112,-160.67C303.102,-147.28 87.0361,-37.33 167.234,-20.231"/>
</g>
<!-- 0&#45;&#45;. -->
<g id="edge17" class="edge">
<title>0&#45;&#45;.</title>
<path fill="none" stroke="#000000" d="M446.912,-160.33C318.902,-145.83 112.39,-41.164 167.529,-21.263"/>
</g>
<!-- 0&#45;&#45;. -->
<g id="edge18" class="edge">
<title>0&#45;&#45;.</title>
<path fill="none" stroke="#000000" d="M447.332,-159.96C336.252,-144.72 144.103,-48.311 168.308,-23.709"/>
</g>
<!-- 0&#45;&#45;. -->
<g id="edge19" class="edge">
<title>0&#45;&#45;.</title>
<path fill="none" stroke="#000000" d="M447.252,-159.38C355.172,-143.67 188.472,-61.698 174.325,-30.275"/>
</g>
<!-- 0&#45;&#45;. -->
<g id="edge20" class="edge">
<title>0&#45;&#45;.</title>
<path fill="none" stroke="#000000" d="M447.652,-158.65C369.722,-142.18 220.752,-69.195 186.722,-35.347"/>
</g>
<!-- 0&#45;&#45;. -->
<g id="edge21" class="edge">
<title>0&#45;&#45;.</title>
<path fill="none" stroke="#000000" d="M448.012,-157.61C379.172,-139.46 238.462,-69.668 196.882,-36.159"/>
</g>
<!-- 0&#45;&#45;. -->
<g id="edge22" class="edge">
<title>0&#45;&#45;.</title>
<path fill="none" stroke="#000000" d="M448.542,-156.18C386.132,-135.76 249.552,-66.936 204.272,-34.796"/>
</g>
<!-- 0&#45;&#45;. -->
<g id="edge23" class="edge">
<title>0&#45;&#45;.</title>
<path fill="none" stroke="#000000" d="M449.642,-154.36C392.212,-131.45 258.162,-63.051 210.012,-32.74"/>
</g>
<!-- 0&#45;&#45;. -->
<g id="edge24" class="edge">
<title>0&#45;&#45;.</title>
<path fill="none" stroke="#000000" d="M451.352,-152.1C397.652,-126.56 265.112,-58.456 214.292,-30.373"/>
</g>
<!-- 0&#45;&#45;. -->
<g id="edge25" class="edge">
<title>0&#45;&#45;.</title>
<path fill="none" stroke="#000000" d="M454.342,-149.72C403.652,-121.7 270.892,-53.483 217.122,-27.905"/>
</g>
<!-- 0&#45;&#45;. -->
<g id="edge26" class="edge">
<title>0&#45;&#45;.</title>
<path fill="none" stroke="#000000" d="M458.242,-147.13C410.002,-116.81 276.612,-48.747 219.112,-25.756"/>
</g>
<!-- 0&#45;&#45;. -->
<g id="edge27" class="edge">
<title>0&#45;&#45;.</title>
<path fill="none" stroke="#000000" d="M464.182,-145.2C418.922,-113.07 282.472,-44.311 220.022,-23.856"/>
</g>
<!-- 0&#45;&#45;. -->
<g id="edge28" class="edge">
<title>0&#45;&#45;.</title>
<path fill="none" stroke="#000000" d="M471.842,-144.05C430.622,-110.65 289.662,-40.684 220.612,-22.431"/>
</g>
<!-- 0&#45;&#45;. -->
<g id="edge29" class="edge">
<title>0&#45;&#45;.</title>
<path fill="none" stroke="#000000" d="M481.712,-144.63C447.652,-110.78 298.802,-37.854 220.872,-21.362"/>
</g>
<!-- 0&#45;&#45;. -->
<g id="edge30" class="edge">
<title>0&#45;&#45;.</title>
<path fill="none" stroke="#000000" d="M494.132,-149.72C479.982,-118.3 313.302,-36.334 221.222,-20.624"/>
</g>
<!-- 0&#45;&#45;. -->
<g id="edge31" class="edge">
<title>0&#45;&#45;.</title>
<path fill="none" stroke="#000000" d="M500.262,-156.18C523.762,-131.39 332.072,-35.275 221.162,-20.04"/>
</g>
<!-- 0&#45;&#45;. -->
<g id="edge32" class="edge">
<title>0&#45;&#45;.</title>
<path fill="none" stroke="#000000" d="M500.972,-158.72C555.992,-138.77 349.342,-34.071 221.382,-19.648"/>
</g>
<!-- 0&#45;&#45;. -->
<g id="edge33" class="edge">
<title>0&#45;&#45;.</title>
<path fill="none" stroke="#000000" d="M501.102,-159.8C581.622,-142.79 365.622,-32.819 221.532,-19.351"/>
</g>
<!-- 0&#45;&#45;. -->
<g id="edge34" class="edge">
<title>0&#45;&#45;.</title>
<path fill="none" stroke="#000000" d="M501.142,-160.38C604.672,-145.43 381.462,-31.512 221.312,-19.097"/>
</g>
<!-- 0&#45;&#45;. -->
<g id="edge35" class="edge">
<title>0&#45;&#45;.</title>
<path fill="none" stroke="#000000" d="M501.532,-160.71C625.822,-147.13 397.602,-30.508 221.442,-18.926"/>
</g>
<!-- 0&#45;&#45;. -->
<g id="edge36" class="edge">
<title>0&#45;&#45;.</title>
<path fill="none" stroke="#000000" d="M501.602,-160.96C646.622,-148.6 413.912,-29.566 221.392,-18.781"/>
</g>
<!-- 0&#45;&#45;. -->
<g id="edge37" class="edge">
<title>0&#45;&#45;.</title>
<path fill="none" stroke="#000000" d="M501.282,-161.17C667.272,-149.97 430.492,-28.708 221.222,-18.662"/>
</g>
<!-- 1 -->
<g id="node3" class="node">
<title>1</title>
<ellipse fill="none" stroke="#000000" cx="474.232" cy="-90" rx="27" ry="18"/>
<text text-anchor="middle" x="474.232" y="-85.8" font-family="Times,serif" font-size="14.00" fill="#000000">1</text>
</g>
<!-- 0&#45;&#45;1 -->
<g id="edge38" class="edge">
<title>0&#45;&#45;1</title>
<path fill="none" stroke="#000000" d="M447.222,-161.71C231.242,-156.95 231.232,-95.058 447.192,-90.291"/>
</g>
<!-- 0&#45;&#45;1 -->
<g id="edge39" class="edge">
<title>0&#45;&#45;1</title>
<path fill="none" stroke="#000000" d="M446.932,-161.65C249.282,-156.51 249.332,-95.459 447.082,-90.341"/>
</g>
<!-- 0&#45;&#45;1 -->
<g id="edge40" class="edge">
<title>0&#45;&#45;1</title>
<path fill="none" stroke="#000000" d="M447.002,-161.6C267.292,-156.08 267.302,-95.915 447.042,-90.404"/>
</g>
<!-- 0&#45;&#45;1 -->
<g id="edge41" class="edge">
<title>0&#45;&#45;1</title>
<path fill="none" stroke="#000000" d="M447.172,-161.52C285.262,-155.59 285.252,-96.416 447.152,-90.479"/>
</g>
<!-- 0&#45;&#45;1 -->
<g id="edge42" class="edge">
<title>0&#45;&#45;1</title>
<path fill="none" stroke="#000000" d="M446.782,-161.4C303.362,-154.87 303.382,-97.119 446.842,-90.598"/>
</g>
<!-- 0&#45;&#45;1 -->
<g id="edge43" class="edge">
<title>0&#45;&#45;1</title>
<path fill="none" stroke="#000000" d="M447.002,-161.26C321.322,-154.16 321.302,-97.858 446.952,-90.739"/>
</g>
<!-- 0&#45;&#45;1 -->
<g id="edge44" class="edge">
<title>0&#45;&#45;1</title>
<path fill="none" stroke="#000000" d="M447.082,-161.06C339.282,-153.23 339.282,-98.768 447.082,-90.937"/>
</g>
<!-- 0&#45;&#45;1 -->
<g id="edge45" class="edge">
<title>0&#45;&#45;1</title>
<path fill="none" stroke="#000000" d="M447.002,-160.75C357.232,-151.99 357.302,-99.914 447.232,-91.228"/>
</g>
<!-- 0&#45;&#45;1 -->
<g id="edge46" class="edge">
<title>0&#45;&#45;1</title>
<path fill="none" stroke="#000000" d="M447.222,-160.29C375.272,-150.5 375.232,-101.56 447.102,-91.725"/>
</g>
<!-- 0&#45;&#45;1 -->
<g id="edge47" class="edge">
<title>0&#45;&#45;1</title>
<path fill="none" stroke="#000000" d="M447.112,-159.44C393.222,-148.24 393.272,-103.67 447.262,-92.532"/>
</g>
<!-- 0&#45;&#45;1 -->
<g id="edge48" class="edge">
<title>0&#45;&#45;1</title>
<path fill="none" stroke="#000000" d="M447.822,-158.03C411.022,-145.44 411.032,-106.53 447.862,-93.961"/>
</g>
<!-- 0&#45;&#45;1 -->
<g id="edge49" class="edge">
<title>0&#45;&#45;1</title>
<path fill="none" stroke="#000000" d="M449.162,-155.1C428.632,-141.37 428.592,-110.78 449.032,-96.989"/>
</g>
<!-- 0&#45;&#45;1 -->
<g id="edge50" class="edge">
<title>0&#45;&#45;1</title>
<path fill="none" stroke="#000000" d="M453.562,-150.11C445.172,-136.85 445.122,-115.51 453.402,-102.15"/>
</g>
<!-- 0&#45;&#45;1 -->
<g id="edge51" class="edge">
<title>0&#45;&#45;1</title>
<path fill="none" stroke="#000000" d="M462.712,-145.66C460.102,-134.04 460.072,-118.49 462.612,-106.77"/>
</g>
<!-- 0&#45;&#45;1 -->
<g id="edge52" class="edge">
<title>0&#45;&#45;1</title>
<path fill="none" stroke="#000000" d="M474.232,-143.83C474.232,-133 474.232,-119.29 474.232,-108.41"/>
</g>
<!-- 1&#45;&#45;0 -->
<g id="edge53" class="edge">
<title>1&#45;&#45;0</title>
<path fill="none" stroke="#000000" d="M485.852,-106.77C488.392,-118.49 488.362,-134.04 485.752,-145.66"/>
</g>
<!-- 1&#45;&#45;0 -->
<g id="edge54" class="edge">
<title>1&#45;&#45;0</title>
<path fill="none" stroke="#000000" d="M495.062,-102.15C503.342,-115.51 503.292,-136.85 494.892,-150.11"/>
</g>
<!-- 1&#45;&#45;0 -->
<g id="edge55" class="edge">
<title>1&#45;&#45;0</title>
<path fill="none" stroke="#000000" d="M499.432,-96.989C519.872,-110.78 519.832,-141.37 499.302,-155.1"/>
</g>
<!-- 1&#45;&#45;0 -->
<g id="edge56" class="edge">
<title>1&#45;&#45;0</title>
<path fill="none" stroke="#000000" d="M500.602,-93.961C537.432,-106.53 537.442,-145.44 500.632,-158.03"/>
</g>
<!-- 1&#45;&#45;0 -->
<g id="edge57" class="edge">
<title>1&#45;&#45;0</title>
<path fill="none" stroke="#000000" d="M501.202,-92.532C555.192,-103.67 555.242,-148.24 501.352,-159.44"/>
</g>
<!-- 1&#45;&#45;0 -->
<g id="edge58" class="edge">
<title>1&#45;&#45;0</title>
<path fill="none" stroke="#000000" d="M501.362,-91.725C573.222,-101.56 573.192,-150.5 501.242,-160.29"/>
</g>
<!-- 1&#45;&#45;0 -->
<g id="edge59" class="edge">
<title>1&#45;&#45;0</title>
<path fill="none" stroke="#000000" d="M501.232,-91.228C591.152,-99.914 591.232,-151.99 501.452,-160.75"/>
</g>
<!-- 1&#45;&#45;0 -->
<g id="edge60" class="edge">
<title>1&#45;&#45;0</title>
<path fill="none" stroke="#000000" d="M501.382,-90.937C609.182,-98.768 609.182,-153.23 501.382,-161.06"/>
</g>
<!-- 1&#45;&#45;0 -->
<g id="edge61" class="edge">
<title>1&#45;&#45;0</title>
<path fill="none" stroke="#000000" d="M501.512,-90.739C627.152,-97.858 627.142,-154.16 501.462,-161.26"/>
</g>
<!-- 1&#45;&#45;0 -->
<g id="edge62" class="edge">
<title>1&#45;&#45;0</title>
<path fill="none" stroke="#000000" d="M501.622,-90.598C645.082,-97.119 645.102,-154.87 501.672,-161.4"/>
</g>
<!-- 1&#45;&#45;0 -->
<g id="edge63" class="edge">
<title>1&#45;&#45;0</title>
<path fill="none" stroke="#000000" d="M501.312,-90.479C663.212,-96.416 663.202,-155.59 501.292,-161.52"/>
</g>
<!-- 1&#45;&#45;0 -->
<g id="edge64" class="edge">
<title>1&#45;&#45;0</title>
<path fill="none" stroke="#000000" d="M501.422,-90.404C681.152,-95.915 681.172,-156.08 501.452,-161.6"/>
</g>
<!-- 1&#45;&#45;0 -->
<g id="edge65" class="edge">
<title>1&#45;&#45;0</title>
<path fill="none" stroke="#000000" d="M501.372,-90.341C699.132,-95.459 699.182,-156.51 501.532,-161.65"/>
</g>
<!-- 1&#45;&#45;0 -->
<g id="edge66" class="edge">
<title>1&#45;&#45;0</title>
<path fill="none" stroke="#000000" d="M501.272,-90.291C717.222,-95.058 717.222,-156.95 501.242,-161.71"/>
</g>
<!-- 1&#45;&#45;. -->
<g id="edge67" class="edge">
<title>1&#45;&#45;.</title>
<path fill="none" stroke="#000000" d="M447.162,-89.929C265.232,-88.942 244.272,-77.939 226.232,-72 127.689,-39.568 0,-19.922 167.084,-18.134"/>
</g>
<!-- 1&#45;&#45;. -->
<g id="edge68" class="edge">
<title>1&#45;&#45;.</title>
<path fill="none" stroke="#000000" d="M447.212,-89.914C283.042,-88.841 262.192,-77.912 244.232,-72 146.244,-39.751 19.439,-20.144 166.986,-18.166"/>
</g>
<!-- 1&#45;&#45;. -->
<g id="edge69" class="edge">
<title>1&#45;&#45;.</title>
<path fill="none" stroke="#000000" d="M447.032,-89.894C300.782,-88.706 280.082,-77.875 262.232,-72 164.951,-39.984 39.267,-20.428 166.863,-18.211"/>
</g>
<!-- 1&#45;&#45;. -->
<g id="edge70" class="edge">
<title>1&#45;&#45;.</title>
<path fill="none" stroke="#000000" d="M447.042,-89.866C318.482,-88.549 297.952,-77.833 280.232,-72 183.759,-40.25 59.354,-20.753 167.134,-18.27"/>
</g>
<!-- 1&#45;&#45;. -->
<g id="edge71" class="edge">
<title>1&#45;&#45;.</title>
<path fill="none" stroke="#000000" d="M447.042,-89.827C336.092,-88.349 315.782,-77.778 298.232,-72 202.972,-40.649 80.4755,-21.245 167.123,-18.372"/>
</g>
<!-- 1&#45;&#45;. -->
<g id="edge72" class="edge">
<title>1&#45;&#45;.</title>
<path fill="none" stroke="#000000" d="M447.002,-89.766C353.582,-88.083 333.562,-77.705 316.232,-72 222.892,-41.28 103.401,-22.032 166.914,-18.565"/>
</g>
<!-- 1&#45;&#45;. -->
<g id="edge73" class="edge">
<title>1&#45;&#45;.</title>
<path fill="none" stroke="#000000" d="M446.862,-89.667C370.862,-87.709 351.252,-77.602 334.232,-72 288.372,-56.906 236.192,-44.582 200.942,-35.538"/>
</g>
<!-- 1&#45;&#45;. -->
<g id="edge74" class="edge">
<title>1&#45;&#45;.</title>
<path fill="none" stroke="#000000" d="M446.902,-89.497C387.842,-87.186 368.812,-77.456 352.232,-72 302.532,-55.643 245.412,-42.538 208.472,-33.336"/>
</g>
<!-- 1&#45;&#45;. -->
<g id="edge75" class="edge">
<title>1&#45;&#45;.</title>
<path fill="none" stroke="#000000" d="M447.252,-89.184C404.322,-86.412 386.142,-77.237 370.232,-72 315.682,-54.047 252.202,-40.012 213.622,-30.755"/>
</g>
<!-- 1&#45;&#45;. -->
<g id="edge76" class="edge">
<title>1&#45;&#45;.</title>
<path fill="none" stroke="#000000" d="M446.942,-88.388C419.382,-84.948 402.852,-76.812 388.232,-72 328.022,-52.185 256.942,-37.143 216.902,-28.03"/>
</g>
<!-- 1&#45;&#45;. -->
<g id="edge77" class="edge">
<title>1&#45;&#45;.</title>
<path fill="none" stroke="#000000" d="M447.502,-86.386C432.092,-82.405 418.492,-76.034 406.232,-72 339.962,-50.19 260.512,-34.163 219.072,-25.46"/>
</g>
<!-- 1&#45;&#45;. -->
<g id="edge78" class="edge">
<title>1&#45;&#45;.</title>
<path fill="none" stroke="#000000" d="M449.942,-82.087C441.702,-78.643 432.652,-74.77 424.232,-72 351.702,-48.129 263.382,-31.185 220.172,-23.189"/>
</g>
<!-- 1&#45;&#45;. -->
<g id="edge79" class="edge">
<title>1&#45;&#45;.</title>
<path fill="none" stroke="#000000" d="M455.172,-76.883C450.962,-75.104 446.512,-73.41 442.232,-72 363.842,-46.201 267.012,-28.492 220.782,-21.428"/>
</g>
<!-- 1&#45;&#45;. -->
<g id="edge80" class="edge">
<title>1&#45;&#45;.</title>
<path fill="none" stroke="#000000" d="M463.802,-73.227C462.602,-72.799 461.412,-72.389 460.232,-72 376.792,-44.539 272.452,-26.244 221.052,-20.196"/>
</g>
<!-- 1&#45;&#45;. -->
<g id="edge81" class="edge">
<title>1&#45;&#45;.</title>
<path fill="none" stroke="#000000" d="M500.442,-85.641C502.452,-81.646 489.752,-75.791 478.232,-72 390.952,-43.275 280.812,-24.58 221.492,-19.439"/>
</g>
<!-- 1&#45;&#45;. -->
<g id="edge82" class="edge">
<title>1&#45;&#45;.</title>
<path fill="none" stroke="#000000" d="M501.272,-88.872C529.052,-85.778 511.592,-77.055 496.232,-72 405.922,-42.278 291.132,-23.294 221.522,-18.953"/>
</g>
<!-- 1&#45;&#45;. -->
<g id="edge83" class="edge">
<title>1&#45;&#45;.</title>
<path fill="none" stroke="#000000" d="M501.302,-89.417C549.422,-86.969 530.622,-77.395 514.232,-72 421.602,-41.513 303.212,-22.324 221.312,-18.647"/>
</g>
<!-- 1&#45;&#45;. -->
<g id="edge84" class="edge">
<title>1&#45;&#45;.</title>
<path fill="none" stroke="#000000" d="M501.662,-89.627C568.602,-87.577 549.142,-77.565 532.232,-72 437.982,-40.981 317.072,-21.658 221.442,-18.469"/>
</g>
<!-- 1&#45;&#45;. -->
<g id="edge85" class="edge">
<title>1&#45;&#45;.</title>
<path fill="none" stroke="#000000" d="M501.402,-89.75C587.452,-88.017 567.512,-77.687 550.232,-72 454.672,-40.549 331.692,-21.122 221.272,-18.345"/>
</g>
<!-- 1&#45;&#45;. -->
<g id="edge86" class="edge">
<title>1&#45;&#45;.</title>
<path fill="none" stroke="#000000" d="M501.432,-89.817C606.012,-88.304 585.752,-77.766 568.232,-72 471.762,-40.25 347.352,-20.753 221.522,-18.27"/>
</g>
<!-- 1&#45;&#45;. -->
<g id="edge87" class="edge">
<title>1&#45;&#45;.</title>
<path fill="none" stroke="#000000" d="M501.292,-89.862C624.442,-88.527 603.932,-77.827 586.232,-72 488.952,-39.984 363.272,-20.428 221.382,-18.211"/>
</g>
<!-- 1&#45;&#45;. -->
<g id="edge88" class="edge">
<title>1&#45;&#45;.</title>
<path fill="none" stroke="#000000" d="M501.462,-89.89C642.742,-88.684 622.062,-77.869 604.232,-72 506.342,-39.784 379.702,-20.184 221.482,-18.172"/>
</g>
<!-- 1&#45;&#45;. -->
<g id="edge89" class="edge">
<title>1&#45;&#45;.</title>
<path fill="none" stroke="#000000" d="M501.422,-89.911C660.992,-88.818 640.172,-77.906 622.232,-72 523.792,-39.601 396.262,-19.962 221.272,-18.139"/>
</g>
<!-- 1&#45;&#45;. -->
<g id="edge90" class="edge">
<title>1&#45;&#45;.</title>
<path fill="none" stroke="#000000" d="M501.312,-89.927C679.212,-88.93 658.262,-77.936 640.232,-72 541.382,-39.468 413.212,-19.801 221.402,-18.118"/>
</g>
<!-- 1&#45;&#45;1 -->
<g id="edge91" class="edge">
<title>1&#45;&#45;1</title>
<path fill="none" stroke="#000000" d="M501.472,-91.686C511.252,-91.722 519.232,-91.16 519.232,-90 519.232,-88.84 511.252,-88.278 501.472,-88.314"/>
</g>
<!-- 1&#45;&#45;1 -->
<g id="edge92" class="edge">
<title>1&#45;&#45;1</title>
<path fill="none" stroke="#000000" d="M501.102,-93.062C519.362,-93.956 537.232,-92.936 537.232,-90 537.232,-87.064 519.362,-86.044 501.102,-86.938"/>
</g>
<!-- 1&#45;&#45;1 -->
<g id="edge93" class="edge">
<title>1&#45;&#45;1</title>
<path fill="none" stroke="#000000" d="M500.782,-94.023C526.722,-96.245 555.232,-94.904 555.232,-90 555.232,-85.096 526.722,-83.755 500.782,-85.977"/>
</g>
<!-- 1&#45;&#45;1 -->
<g id="edge94" class="edge">
<title>1&#45;&#45;1</title>
<path fill="none" stroke="#000000" d="M500.342,-94.702C533.552,-98.546 573.232,-96.979 573.232,-90 573.232,-83.021 533.552,-81.454 500.342,-85.298"/>
</g>
<!-- 1&#45;&#45;1 -->
<g id="edge95" class="edge">
<title>1&#45;&#45;1</title>
<path fill="none" stroke="#000000" d="M500.092,-95.223C540.232,-100.84 591.232,-99.097 591.232,-90 591.232,-80.903 540.232,-79.162 500.092,-84.777"/>
</g>
<!-- 1&#45;&#45;1 -->
<g id="edge96" class="edge">
<title>1&#45;&#45;1</title>
<path fill="none" stroke="#000000" d="M500.072,-95.66C546.922,-103.12 609.232,-101.23 609.232,-90 609.232,-78.768 546.922,-76.881 500.072,-84.34"/>
</g>
<!-- 1&#45;&#45;1 -->
<g id="edge97" class="edge">
<title>1&#45;&#45;1</title>
<path fill="none" stroke="#000000" d="M499.812,-95.973C553.262,-105.4 627.232,-103.41 627.232,-90 627.232,-76.588 553.262,-74.597 499.812,-84.027"/>
</g>
<!-- 1&#45;&#45;1 -->
<g id="edge98" class="edge">
<title>1&#45;&#45;1</title>
<path fill="none" stroke="#000000" d="M499.962,-96.297C559.882,-107.67 645.232,-105.57 645.232,-90 645.232,-74.426 559.882,-72.327 499.962,-83.703"/>
</g>
</g>
</svg>
