<?xml version="1.0" encoding="UTF-8" standalone="no"?>
<!DOCTYPE svg PUBLIC "-//W3C//DTD SVG 1.1//EN"
 "http://www.w3.org/Graphics/SVG/1.1/DTD/svg11.dtd">
<!-- Generated by graphviz version 2.40.1 (20161225.0304)
 -->
<!-- Title: %3 Pages: 1 -->
<svg width="224pt" height="188pt"
 viewBox="0.00 0.00 224.00 188.00" xmlns="http://www.w3.org/2000/svg" xmlns:xlink="http://www.w3.org/1999/xlink">
<g id="graph0" class="graph" transform="scale(1 1) rotate(0) translate(4 184)">
<title>%3</title>
<polygon fill="#ffffff" stroke="transparent" points="-4,4 -4,-184 220,-184 220,4 -4,4"/>
<!-- (5, &#39;.&#39;) -->
<g id="node1" class="node">
<title>(5, &#39;.&#39;)</title>
<ellipse fill="none" stroke="#000000" cx="144" cy="-162" rx="30.4775" ry="18"/>
<text text-anchor="middle" x="144" y="-157.8" font-family="Times,serif" font-size="14.00" fill="#000000">(5, &#39;.&#39;)</text>
</g>
<!-- . -->
<g id="node2" class="node">
<title>.</title>
<ellipse fill="none" stroke="#000000" cx="99" cy="-90" rx="27" ry="18"/>
<text text-anchor="middle" x="99" y="-85.8" font-family="Times,serif" font-size="14.00" fill="#000000">.</text>
</g>
<!-- (5, &#39;.&#39;)&#45;&#45;. -->
<g id="edge1" class="edge">
<title>(5, &#39;.&#39;)&#45;&#45;.</title>
<path fill="none" stroke="#000000" d="M133.34,-144.94C126.16,-133.46 116.75,-118.39 109.59,-106.94"/>
</g>
<!-- p -->
<g id="node3" class="node">
<title>p</title>
<ellipse fill="none" stroke="#000000" cx="189" cy="-90" rx="27" ry="18"/>
<text text-anchor="middle" x="189" y="-85.8" font-family="Times,serif" font-size="14.00" fill="#000000">p</text>
</g>
<!-- (5, &#39;.&#39;)&#45;&#45;p -->
<g id="edge2" class="edge">
<title>(5, &#39;.&#39;)&#45;&#45;p</title>
<path fill="none" stroke="#000000" d="M154.66,-144.94C161.84,-133.46 171.25,-118.39 178.41,-106.94"/>
</g>
<!-- .&#45;&#45;. -->
<g id="edge3" class="edge">
<title>.&#45;&#45;.</title>
<path fill="none" stroke="#000000" d="M118.9,-102.43C131.69,-105.68 144,-101.53 144,-90 144,-78.469 131.69,-74.325 118.9,-77.568"/>
</g>
<!-- a -->
<g id="node4" class="node">
<title>a</title>
<ellipse fill="none" stroke="#000000" cx="27" cy="-18" rx="27" ry="18"/>
<text text-anchor="middle" x="27" y="-13.8" font-family="Times,serif" font-size="14.00" fill="#000000">a</text>
</g>
<!-- .&#45;&#45;a -->
<g id="edge4" class="edge">
<title>.&#45;&#45;a</title>
<path fill="none" stroke="#000000" d="M83.731,-74.731C71.512,-62.512 54.46,-45.46 42.247,-33.247"/>
</g>
<!-- l -->
<g id="node5" class="node">
<title>l</title>
<ellipse fill="none" stroke="#000000" cx="99" cy="-18" rx="27" ry="18"/>
<text text-anchor="middle" x="99" y="-13.8" font-family="Times,serif" font-size="14.00" fill="#000000">l</text>
</g>
<!-- .&#45;&#45;l -->
<g id="edge5" class="edge">
<title>.&#45;&#45;l</title>
<path fill="none" stroke="#000000" d="M99,-71.831C99,-61 99,-47.288 99,-36.413"/>
</g>
<!-- e -->
<g id="node6" class="node">
<title>e</title>
<ellipse fill="none" stroke="#000000" cx="171" cy="-18" rx="27" ry="18"/>
<text text-anchor="middle" x="171" y="-13.8" font-family="Times,serif" font-size="14.00" fill="#000000">e</text>
</g>
<!-- .&#45;&#45;e -->
<g id="edge6" class="edge">
<title>.&#45;&#45;e</title>
<path fill="none" stroke="#000000" d="M114.27,-74.731C126.49,-62.512 143.54,-45.46 155.75,-33.247"/>
</g>
</g>
</svg>
