<?xml version="1.0" encoding="UTF-8" standalone="no"?>
<!DOCTYPE svg PUBLIC "-//W3C//DTD SVG 1.1//EN"
 "http://www.w3.org/Graphics/SVG/1.1/DTD/svg11.dtd">
<!-- Generated by graphviz version 2.40.1 (20161225.0304)
 -->
<!-- Title: %3 Pages: 1 -->
<svg width="584pt" height="332pt"
 viewBox="0.00 0.00 584.00 332.00" xmlns="http://www.w3.org/2000/svg" xmlns:xlink="http://www.w3.org/1999/xlink">
<g id="graph0" class="graph" transform="scale(1 1) rotate(0) translate(4 328)">
<title>%3</title>
<polygon fill="#ffffff" stroke="transparent" points="-4,4 -4,-328 580,-328 580,4 -4,4"/>
<!-- (23, 9) -->
<g id="node1" class="node">
<title>(23, 9)</title>
<ellipse fill="none" stroke="#000000" cx="297" cy="-306" rx="33.8683" ry="18"/>
<text text-anchor="middle" x="297" y="-301.8" font-family="Times,serif" font-size="14.00" fill="#000000">(23, 9)</text>
</g>
<!-- 8 -->
<g id="node2" class="node">
<title>8</title>
<ellipse fill="none" stroke="#000000" cx="225" cy="-234" rx="27" ry="18"/>
<text text-anchor="middle" x="225" y="-229.8" font-family="Times,serif" font-size="14.00" fill="#000000">8</text>
</g>
<!-- (23, 9)&#45;&#45;8 -->
<g id="edge1" class="edge">
<title>(23, 9)&#45;&#45;8</title>
<path fill="none" stroke="#000000" d="M281.02,-290.02C268.92,-277.92 252.4,-261.4 240.44,-249.44"/>
</g>
<!-- 7 -->
<g id="node3" class="node">
<title>7</title>
<ellipse fill="none" stroke="#000000" cx="369" cy="-234" rx="27" ry="18"/>
<text text-anchor="middle" x="369" y="-229.8" font-family="Times,serif" font-size="14.00" fill="#000000">7</text>
</g>
<!-- (23, 9)&#45;&#45;7 -->
<g id="edge2" class="edge">
<title>(23, 9)&#45;&#45;7</title>
<path fill="none" stroke="#000000" d="M312.98,-290.02C325.08,-277.92 341.6,-261.4 353.56,-249.44"/>
</g>
<!-- 6 -->
<g id="node4" class="node">
<title>6</title>
<ellipse fill="none" stroke="#000000" cx="117" cy="-162" rx="27" ry="18"/>
<text text-anchor="middle" x="117" y="-157.8" font-family="Times,serif" font-size="14.00" fill="#000000">6</text>
</g>
<!-- 8&#45;&#45;6 -->
<g id="edge3" class="edge">
<title>8&#45;&#45;6</title>
<path fill="none" stroke="#000000" d="M205.69,-221.13C186.03,-208.02 155.74,-187.83 136.14,-174.76"/>
</g>
<!-- 4 -->
<g id="node5" class="node">
<title>4</title>
<ellipse fill="none" stroke="#000000" cx="225" cy="-162" rx="27" ry="18"/>
<text text-anchor="middle" x="225" y="-157.8" font-family="Times,serif" font-size="14.00" fill="#000000">4</text>
</g>
<!-- 8&#45;&#45;4 -->
<g id="edge4" class="edge">
<title>8&#45;&#45;4</title>
<path fill="none" stroke="#000000" d="M225,-215.83C225,-205 225,-191.29 225,-180.41"/>
</g>
<!-- 5 -->
<g id="node6" class="node">
<title>5</title>
<ellipse fill="none" stroke="#000000" cx="369" cy="-162" rx="27" ry="18"/>
<text text-anchor="middle" x="369" y="-157.8" font-family="Times,serif" font-size="14.00" fill="#000000">5</text>
</g>
<!-- 7&#45;&#45;5 -->
<g id="edge5" class="edge">
<title>7&#45;&#45;5</title>
<path fill="none" stroke="#000000" d="M369,-215.83C369,-205 369,-191.29 369,-180.41"/>
</g>
<!-- 2 -->
<g id="node7" class="node">
<title>2</title>
<ellipse fill="none" stroke="#000000" cx="477" cy="-162" rx="27" ry="18"/>
<text text-anchor="middle" x="477" y="-157.8" font-family="Times,serif" font-size="14.00" fill="#000000">2</text>
</g>
<!-- 7&#45;&#45;2 -->
<g id="edge6" class="edge">
<title>7&#45;&#45;2</title>
<path fill="none" stroke="#000000" d="M388.31,-221.13C407.97,-208.02 438.26,-187.83 457.86,-174.76"/>
</g>
<!-- 3 -->
<g id="node8" class="node">
<title>3</title>
<ellipse fill="none" stroke="#000000" cx="45" cy="-90" rx="27" ry="18"/>
<text text-anchor="middle" x="45" y="-85.8" font-family="Times,serif" font-size="14.00" fill="#000000">3</text>
</g>
<!-- 6&#45;&#45;3 -->
<g id="edge7" class="edge">
<title>6&#45;&#45;3</title>
<path fill="none" stroke="#000000" d="M101.73,-146.73C89.512,-134.51 72.46,-117.46 60.247,-105.25"/>
</g>
<!-- u -->
<g id="node9" class="node">
<title>u</title>
<ellipse fill="none" stroke="#000000" cx="117" cy="-90" rx="27" ry="18"/>
<text text-anchor="middle" x="117" y="-85.8" font-family="Times,serif" font-size="14.00" fill="#000000">u</text>
</g>
<!-- 6&#45;&#45;u -->
<g id="edge8" class="edge">
<title>6&#45;&#45;u</title>
<path fill="none" stroke="#000000" d="M117,-143.83C117,-133 117,-119.29 117,-108.41"/>
</g>
<!-- o -->
<g id="node10" class="node">
<title>o</title>
<ellipse fill="none" stroke="#000000" cx="189" cy="-90" rx="27" ry="18"/>
<text text-anchor="middle" x="189" y="-85.8" font-family="Times,serif" font-size="14.00" fill="#000000">o</text>
</g>
<!-- 4&#45;&#45;o -->
<g id="edge9" class="edge">
<title>4&#45;&#45;o</title>
<path fill="none" stroke="#000000" d="M216.29,-144.57C210.63,-133.25 203.28,-118.56 197.63,-107.27"/>
</g>
<!-- 1 -->
<g id="node11" class="node">
<title>1</title>
<ellipse fill="none" stroke="#000000" cx="261" cy="-90" rx="27" ry="18"/>
<text text-anchor="middle" x="261" y="-85.8" font-family="Times,serif" font-size="14.00" fill="#000000">1</text>
</g>
<!-- 4&#45;&#45;1 -->
<g id="edge10" class="edge">
<title>4&#45;&#45;1</title>
<path fill="none" stroke="#000000" d="M233.71,-144.57C239.37,-133.25 246.72,-118.56 252.37,-107.27"/>
</g>
<!-- e -->
<g id="node12" class="node">
<title>e</title>
<ellipse fill="none" stroke="#000000" cx="333" cy="-90" rx="27" ry="18"/>
<text text-anchor="middle" x="333" y="-85.8" font-family="Times,serif" font-size="14.00" fill="#000000">e</text>
</g>
<!-- 5&#45;&#45;e -->
<g id="edge11" class="edge">
<title>5&#45;&#45;e</title>
<path fill="none" stroke="#000000" d="M360.29,-144.57C354.63,-133.25 347.28,-118.56 341.63,-107.27"/>
</g>
<!--   -->
<g id="node13" class="node">
<title> </title>
<ellipse fill="none" stroke="#000000" cx="405" cy="-90" rx="27" ry="18"/>
<text text-anchor="middle" x="405" y="-85.8" font-family="Times,serif" font-size="14.00" fill="#000000"> </text>
</g>
<!-- 5&#45;&#45;  -->
<g id="edge12" class="edge">
<title>5&#45;&#45; </title>
<path fill="none" stroke="#000000" d="M377.71,-144.57C383.37,-133.25 390.72,-118.56 396.37,-107.27"/>
</g>
<!-- i -->
<g id="node14" class="node">
<title>i</title>
<ellipse fill="none" stroke="#000000" cx="477" cy="-90" rx="27" ry="18"/>
<text text-anchor="middle" x="477" y="-85.8" font-family="Times,serif" font-size="14.00" fill="#000000">i</text>
</g>
<!-- 2&#45;&#45;i -->
<g id="edge13" class="edge">
<title>2&#45;&#45;i</title>
<path fill="none" stroke="#000000" d="M477,-143.83C477,-133 477,-119.29 477,-108.41"/>
</g>
<!-- y -->
<g id="node15" class="node">
<title>y</title>
<ellipse fill="none" stroke="#000000" cx="549" cy="-90" rx="27" ry="18"/>
<text text-anchor="middle" x="549" y="-85.8" font-family="Times,serif" font-size="14.00" fill="#000000">y</text>
</g>
<!-- 2&#45;&#45;y -->
<g id="edge14" class="edge">
<title>2&#45;&#45;y</title>
<path fill="none" stroke="#000000" d="M492.27,-146.73C504.49,-134.51 521.54,-117.46 533.75,-105.25"/>
</g>
<!-- p -->
<g id="node16" class="node">
<title>p</title>
<ellipse fill="none" stroke="#000000" cx="27" cy="-18" rx="27" ry="18"/>
<text text-anchor="middle" x="27" y="-13.8" font-family="Times,serif" font-size="14.00" fill="#000000">p</text>
</g>
<!-- 3&#45;&#45;p -->
<g id="edge15" class="edge">
<title>3&#45;&#45;p</title>
<path fill="none" stroke="#000000" d="M40.551,-72.202C37.781,-61.125 34.232,-46.928 31.461,-35.843"/>
</g>
<!-- r -->
<g id="node17" class="node">
<title>r</title>
<ellipse fill="none" stroke="#000000" cx="99" cy="-18" rx="27" ry="18"/>
<text text-anchor="middle" x="99" y="-13.8" font-family="Times,serif" font-size="14.00" fill="#000000">r</text>
</g>
<!-- 3&#45;&#45;r -->
<g id="edge16" class="edge">
<title>3&#45;&#45;r</title>
<path fill="none" stroke="#000000" d="M57.253,-73.662C66.091,-61.879 77.969,-46.042 86.795,-34.273"/>
</g>
<!-- g -->
<g id="node18" class="node">
<title>g</title>
<ellipse fill="none" stroke="#000000" cx="207" cy="-18" rx="27" ry="18"/>
<text text-anchor="middle" x="207" y="-13.8" font-family="Times,serif" font-size="14.00" fill="#000000">g</text>
</g>
<!-- 1&#45;&#45;g -->
<g id="edge17" class="edge">
<title>1&#45;&#45;g</title>
<path fill="none" stroke="#000000" d="M248.75,-73.662C239.91,-61.879 228.03,-46.042 219.2,-34.273"/>
</g>
<!-- h -->
<g id="node19" class="node">
<title>h</title>
<ellipse fill="none" stroke="#000000" cx="279" cy="-18" rx="27" ry="18"/>
<text text-anchor="middle" x="279" y="-13.8" font-family="Times,serif" font-size="14.00" fill="#000000">h</text>
</g>
<!-- 1&#45;&#45;h -->
<g id="edge18" class="edge">
<title>1&#45;&#45;h</title>
<path fill="none" stroke="#000000" d="M265.45,-72.202C268.22,-61.125 271.77,-46.928 274.54,-35.843"/>
</g>
</g>
</svg>
