<?xml version="1.0" encoding="UTF-8" standalone="no"?>
<!DOCTYPE svg PUBLIC "-//W3C//DTD SVG 1.1//EN"
 "http://www.w3.org/Graphics/SVG/1.1/DTD/svg11.dtd">
<!-- Generated by graphviz version 2.40.1 (20161225.0304)
 -->
<!-- Title: %3 Pages: 1 -->
<svg width="332pt" height="332pt"
 viewBox="0.00 0.00 332.00 332.00" xmlns="http://www.w3.org/2000/svg" xmlns:xlink="http://www.w3.org/1999/xlink">
<g id="graph0" class="graph" transform="scale(1 1) rotate(0) translate(4 328)">
<title>%3</title>
<polygon fill="#ffffff" stroke="transparent" points="-4,4 -4,-328 328,-328 328,4 -4,4"/>
<!-- (10, 6) -->
<g id="node1" class="node">
<title>(10, 6)</title>
<ellipse fill="none" stroke="#000000" cx="135" cy="-306" rx="33.8683" ry="18"/>
<text text-anchor="middle" x="135" y="-301.8" font-family="Times,serif" font-size="14.00" fill="#000000">(10, 6)</text>
</g>
<!-- 5 -->
<g id="node2" class="node">
<title>5</title>
<ellipse fill="none" stroke="#000000" cx="99" cy="-234" rx="27" ry="18"/>
<text text-anchor="middle" x="99" y="-229.8" font-family="Times,serif" font-size="14.00" fill="#000000">5</text>
</g>
<!-- (10, 6)&#45;&#45;5 -->
<g id="edge1" class="edge">
<title>(10, 6)&#45;&#45;5</title>
<path fill="none" stroke="#000000" d="M126.29,-288.57C120.63,-277.25 113.28,-262.56 107.63,-251.27"/>
</g>
<!-- 4 -->
<g id="node3" class="node">
<title>4</title>
<ellipse fill="none" stroke="#000000" cx="171" cy="-234" rx="27" ry="18"/>
<text text-anchor="middle" x="171" y="-229.8" font-family="Times,serif" font-size="14.00" fill="#000000">4</text>
</g>
<!-- (10, 6)&#45;&#45;4 -->
<g id="edge2" class="edge">
<title>(10, 6)&#45;&#45;4</title>
<path fill="none" stroke="#000000" d="M143.71,-288.57C149.37,-277.25 156.72,-262.56 162.37,-251.27"/>
</g>
<!-- p -->
<g id="node4" class="node">
<title>p</title>
<ellipse fill="none" stroke="#000000" cx="27" cy="-162" rx="27" ry="18"/>
<text text-anchor="middle" x="27" y="-157.8" font-family="Times,serif" font-size="14.00" fill="#000000">p</text>
</g>
<!-- 5&#45;&#45;p -->
<g id="edge3" class="edge">
<title>5&#45;&#45;p</title>
<path fill="none" stroke="#000000" d="M83.731,-218.73C71.512,-206.51 54.46,-189.46 42.247,-177.25"/>
</g>
<!-- 3 -->
<g id="node5" class="node">
<title>3</title>
<ellipse fill="none" stroke="#000000" cx="99" cy="-162" rx="27" ry="18"/>
<text text-anchor="middle" x="99" y="-157.8" font-family="Times,serif" font-size="14.00" fill="#000000">3</text>
</g>
<!-- 5&#45;&#45;3 -->
<g id="edge4" class="edge">
<title>5&#45;&#45;3</title>
<path fill="none" stroke="#000000" d="M99,-215.83C99,-205 99,-191.29 99,-180.41"/>
</g>
<!-- e -->
<g id="node6" class="node">
<title>e</title>
<ellipse fill="none" stroke="#000000" cx="171" cy="-162" rx="27" ry="18"/>
<text text-anchor="middle" x="171" y="-157.8" font-family="Times,serif" font-size="14.00" fill="#000000">e</text>
</g>
<!-- 4&#45;&#45;e -->
<g id="edge5" class="edge">
<title>4&#45;&#45;e</title>
<path fill="none" stroke="#000000" d="M171,-215.83C171,-205 171,-191.29 171,-180.41"/>
</g>
<!-- 1 -->
<g id="node7" class="node">
<title>1</title>
<ellipse fill="none" stroke="#000000" cx="243" cy="-162" rx="27" ry="18"/>
<text text-anchor="middle" x="243" y="-157.8" font-family="Times,serif" font-size="14.00" fill="#000000">1</text>
</g>
<!-- 4&#45;&#45;1 -->
<g id="edge6" class="edge">
<title>4&#45;&#45;1</title>
<path fill="none" stroke="#000000" d="M186.27,-218.73C198.49,-206.51 215.54,-189.46 227.75,-177.25"/>
</g>
<!-- 2 -->
<g id="node8" class="node">
<title>2</title>
<ellipse fill="none" stroke="#000000" cx="63" cy="-90" rx="27" ry="18"/>
<text text-anchor="middle" x="63" y="-85.8" font-family="Times,serif" font-size="14.00" fill="#000000">2</text>
</g>
<!-- 3&#45;&#45;2 -->
<g id="edge7" class="edge">
<title>3&#45;&#45;2</title>
<path fill="none" stroke="#000000" d="M90.285,-144.57C84.625,-133.25 77.278,-118.56 71.634,-107.27"/>
</g>
<!-- a -->
<g id="node9" class="node">
<title>a</title>
<ellipse fill="none" stroke="#000000" cx="135" cy="-90" rx="27" ry="18"/>
<text text-anchor="middle" x="135" y="-85.8" font-family="Times,serif" font-size="14.00" fill="#000000">a</text>
</g>
<!-- 3&#45;&#45;a -->
<g id="edge8" class="edge">
<title>3&#45;&#45;a</title>
<path fill="none" stroke="#000000" d="M107.71,-144.57C113.37,-133.25 120.72,-118.56 126.37,-107.27"/>
</g>
<!-- i -->
<g id="node10" class="node">
<title>i</title>
<ellipse fill="none" stroke="#000000" cx="225" cy="-90" rx="27" ry="18"/>
<text text-anchor="middle" x="225" y="-85.8" font-family="Times,serif" font-size="14.00" fill="#000000">i</text>
</g>
<!-- 1&#45;&#45;i -->
<g id="edge9" class="edge">
<title>1&#45;&#45;i</title>
<path fill="none" stroke="#000000" d="M238.55,-144.2C235.78,-133.13 232.23,-118.93 229.46,-107.84"/>
</g>
<!-- s -->
<g id="node11" class="node">
<title>s</title>
<ellipse fill="none" stroke="#000000" cx="297" cy="-90" rx="27" ry="18"/>
<text text-anchor="middle" x="297" y="-85.8" font-family="Times,serif" font-size="14.00" fill="#000000">s</text>
</g>
<!-- 1&#45;&#45;s -->
<g id="edge10" class="edge">
<title>1&#45;&#45;s</title>
<path fill="none" stroke="#000000" d="M255.25,-145.66C264.09,-133.88 275.97,-118.04 284.8,-106.27"/>
</g>
<!-- l -->
<g id="node12" class="node">
<title>l</title>
<ellipse fill="none" stroke="#000000" cx="27" cy="-18" rx="27" ry="18"/>
<text text-anchor="middle" x="27" y="-13.8" font-family="Times,serif" font-size="14.00" fill="#000000">l</text>
</g>
<!-- 2&#45;&#45;l -->
<g id="edge11" class="edge">
<title>2&#45;&#45;l</title>
<path fill="none" stroke="#000000" d="M54.285,-72.571C48.625,-61.251 41.278,-46.557 35.634,-35.269"/>
</g>
<!--   -->
<g id="node13" class="node">
<title> </title>
<ellipse fill="none" stroke="#000000" cx="99" cy="-18" rx="27" ry="18"/>
<text text-anchor="middle" x="99" y="-13.8" font-family="Times,serif" font-size="14.00" fill="#000000"> </text>
</g>
<!-- 2&#45;&#45;  -->
<g id="edge12" class="edge">
<title>2&#45;&#45; </title>
<path fill="none" stroke="#000000" d="M71.715,-72.571C77.375,-61.251 84.722,-46.557 90.366,-35.269"/>
</g>
</g>
</svg>
