<?xml version="1.0" encoding="UTF-8" standalone="no"?>
<!DOCTYPE svg PUBLIC "-//W3C//DTD SVG 1.1//EN"
 "http://www.w3.org/Graphics/SVG/1.1/DTD/svg11.dtd">
<!-- Generated by graphviz version 2.40.1 (20161225.0304)
 -->
<!-- Title: %3 Pages: 1 -->
<svg width="170pt" height="188pt"
 viewBox="0.00 0.00 170.00 188.00" xmlns="http://www.w3.org/2000/svg" xmlns:xlink="http://www.w3.org/1999/xlink">
<g id="graph0" class="graph" transform="scale(1 1) rotate(0) translate(4 184)">
<title>%3</title>
<polygon fill="#ffffff" stroke="transparent" points="-4,4 -4,-184 166,-184 166,4 -4,4"/>
<g id="node1" class="node">
<title></title>
<ellipse fill="none" stroke="#000000" cx="63" cy="-162" rx="27" ry="18"/>
</g>
<!-- y -->
<g id="node2" class="node">
<title>y</title>
<ellipse fill="none" stroke="#000000" cx="27" cy="-90" rx="27" ry="18"/>
<text text-anchor="middle" x="27" y="-85.8" font-family="Times,serif" font-size="14.00" fill="#000000">y</text>
</g>
<!-- &#45;&#45;y -->
<g id="edge1" class="edge">
<title>&#45;&#45;y</title>
<path fill="none" stroke="#000000" d="M54.285,-144.57C48.625,-133.25 41.278,-118.56 35.634,-107.27"/>
</g>
<!-- 1 -->
<g id="node3" class="node">
<title>1</title>
<ellipse fill="none" stroke="#000000" cx="99" cy="-90" rx="27" ry="18"/>
<text text-anchor="middle" x="99" y="-85.8" font-family="Times,serif" font-size="14.00" fill="#000000">1</text>
</g>
<!-- &#45;&#45;1 -->
<g id="edge2" class="edge">
<title>&#45;&#45;1</title>
<path fill="none" stroke="#000000" d="M71.715,-144.57C77.375,-133.25 84.722,-118.56 90.366,-107.27"/>
</g>
<!-- h -->
<g id="node4" class="node">
<title>h</title>
<ellipse fill="none" stroke="#000000" cx="63" cy="-18" rx="27" ry="18"/>
<text text-anchor="middle" x="63" y="-13.8" font-family="Times,serif" font-size="14.00" fill="#000000">h</text>
</g>
<!-- 1&#45;&#45;h -->
<g id="edge3" class="edge">
<title>1&#45;&#45;h</title>
<path fill="none" stroke="#000000" d="M90.285,-72.571C84.625,-61.251 77.278,-46.557 71.634,-35.269"/>
</g>
<!-- e -->
<g id="node5" class="node">
<title>e</title>
<ellipse fill="none" stroke="#000000" cx="135" cy="-18" rx="27" ry="18"/>
<text text-anchor="middle" x="135" y="-13.8" font-family="Times,serif" font-size="14.00" fill="#000000">e</text>
</g>
<!-- 1&#45;&#45;e -->
<g id="edge4" class="edge">
<title>1&#45;&#45;e</title>
<path fill="none" stroke="#000000" d="M107.71,-72.571C113.37,-61.251 120.72,-46.557 126.37,-35.269"/>
</g>
</g>
</svg>
