<?xml version="1.0" encoding="UTF-8" standalone="no"?>
<!DOCTYPE svg PUBLIC "-//W3C//DTD SVG 1.1//EN"
 "http://www.w3.org/Graphics/SVG/1.1/DTD/svg11.dtd">
<!-- Generated by graphviz version 2.40.1 (20161225.0304)
 -->
<!-- Title: %3 Pages: 1 -->
<svg width="206pt" height="260pt"
 viewBox="0.00 0.00 206.00 260.00" xmlns="http://www.w3.org/2000/svg" xmlns:xlink="http://www.w3.org/1999/xlink">
<g id="graph0" class="graph" transform="scale(1 1) rotate(0) translate(4 256)">
<title>%3</title>
<polygon fill="#ffffff" stroke="transparent" points="-4,4 -4,-256 202,-256 202,4 -4,4"/>
<g id="node1" class="node">
<title></title>
<ellipse fill="none" stroke="#000000" cx="135" cy="-234" rx="27" ry="18"/>
</g>
<!-- 2 -->
<g id="node2" class="node">
<title>2</title>
<ellipse fill="none" stroke="#000000" cx="99" cy="-162" rx="27" ry="18"/>
<text text-anchor="middle" x="99" y="-157.8" font-family="Times,serif" font-size="14.00" fill="#000000">2</text>
</g>
<!-- &#45;&#45;2 -->
<g id="edge1" class="edge">
<title>&#45;&#45;2</title>
<path fill="none" stroke="#000000" d="M126.29,-216.57C120.63,-205.25 113.28,-190.56 107.63,-179.27"/>
</g>
<!-- p -->
<g id="node3" class="node">
<title>p</title>
<ellipse fill="none" stroke="#000000" cx="171" cy="-162" rx="27" ry="18"/>
<text text-anchor="middle" x="171" y="-157.8" font-family="Times,serif" font-size="14.00" fill="#000000">p</text>
</g>
<!-- &#45;&#45;p -->
<g id="edge2" class="edge">
<title>&#45;&#45;p</title>
<path fill="none" stroke="#000000" d="M143.71,-216.57C149.37,-205.25 156.72,-190.56 162.37,-179.27"/>
</g>
<!-- 1 -->
<g id="node4" class="node">
<title>1</title>
<ellipse fill="none" stroke="#000000" cx="63" cy="-90" rx="27" ry="18"/>
<text text-anchor="middle" x="63" y="-85.8" font-family="Times,serif" font-size="14.00" fill="#000000">1</text>
</g>
<!-- 2&#45;&#45;1 -->
<g id="edge3" class="edge">
<title>2&#45;&#45;1</title>
<path fill="none" stroke="#000000" d="M90.285,-144.57C84.625,-133.25 77.278,-118.56 71.634,-107.27"/>
</g>
<!-- a -->
<g id="node5" class="node">
<title>a</title>
<ellipse fill="none" stroke="#000000" cx="135" cy="-90" rx="27" ry="18"/>
<text text-anchor="middle" x="135" y="-85.8" font-family="Times,serif" font-size="14.00" fill="#000000">a</text>
</g>
<!-- 2&#45;&#45;a -->
<g id="edge4" class="edge">
<title>2&#45;&#45;a</title>
<path fill="none" stroke="#000000" d="M107.71,-144.57C113.37,-133.25 120.72,-118.56 126.37,-107.27"/>
</g>
<!-- l -->
<g id="node6" class="node">
<title>l</title>
<ellipse fill="none" stroke="#000000" cx="27" cy="-18" rx="27" ry="18"/>
<text text-anchor="middle" x="27" y="-13.8" font-family="Times,serif" font-size="14.00" fill="#000000">l</text>
</g>
<!-- 1&#45;&#45;l -->
<g id="edge5" class="edge">
<title>1&#45;&#45;l</title>
<path fill="none" stroke="#000000" d="M54.285,-72.571C48.625,-61.251 41.278,-46.557 35.634,-35.269"/>
</g>
<!-- e -->
<g id="node7" class="node">
<title>e</title>
<ellipse fill="none" stroke="#000000" cx="99" cy="-18" rx="27" ry="18"/>
<text text-anchor="middle" x="99" y="-13.8" font-family="Times,serif" font-size="14.00" fill="#000000">e</text>
</g>
<!-- 1&#45;&#45;e -->
<g id="edge6" class="edge">
<title>1&#45;&#45;e</title>
<path fill="none" stroke="#000000" d="M71.715,-72.571C77.375,-61.251 84.722,-46.557 90.366,-35.269"/>
</g>
</g>
</svg>
