<?xml version="1.0" encoding="UTF-8" standalone="no"?>
<!DOCTYPE svg PUBLIC "-//W3C//DTD SVG 1.1//EN"
 "http://www.w3.org/Graphics/SVG/1.1/DTD/svg11.dtd">
<!-- Generated by graphviz version 2.40.1 (20161225.0304)
 -->
<!-- Title: %3 Pages: 1 -->
<svg width="386pt" height="332pt"
 viewBox="0.00 0.00 386.00 332.00" xmlns="http://www.w3.org/2000/svg" xmlns:xlink="http://www.w3.org/1999/xlink">
<g id="graph0" class="graph" transform="scale(1 1) rotate(0) translate(4 328)">
<title>%3</title>
<polygon fill="#ffffff" stroke="transparent" points="-4,4 -4,-328 382,-328 382,4 -4,4"/>
<!-- (18, 7) -->
<g id="node1" class="node">
<title>(18, 7)</title>
<ellipse fill="none" stroke="#000000" cx="153" cy="-306" rx="33.8683" ry="18"/>
<text text-anchor="middle" x="153" y="-301.8" font-family="Times,serif" font-size="14.00" fill="#000000">(18, 7)</text>
</g>
<!-- 6 -->
<g id="node2" class="node">
<title>6</title>
<ellipse fill="none" stroke="#000000" cx="117" cy="-234" rx="27" ry="18"/>
<text text-anchor="middle" x="117" y="-229.8" font-family="Times,serif" font-size="14.00" fill="#000000">6</text>
</g>
<!-- (18, 7)&#45;&#45;6 -->
<g id="edge1" class="edge">
<title>(18, 7)&#45;&#45;6</title>
<path fill="none" stroke="#000000" d="M144.29,-288.57C138.63,-277.25 131.28,-262.56 125.63,-251.27"/>
</g>
<!-- 5 -->
<g id="node3" class="node">
<title>5</title>
<ellipse fill="none" stroke="#000000" cx="189" cy="-234" rx="27" ry="18"/>
<text text-anchor="middle" x="189" y="-229.8" font-family="Times,serif" font-size="14.00" fill="#000000">5</text>
</g>
<!-- (18, 7)&#45;&#45;5 -->
<g id="edge2" class="edge">
<title>(18, 7)&#45;&#45;5</title>
<path fill="none" stroke="#000000" d="M161.71,-288.57C167.37,-277.25 174.72,-262.56 180.37,-251.27"/>
</g>
<!-- 4 -->
<g id="node4" class="node">
<title>4</title>
<ellipse fill="none" stroke="#000000" cx="45" cy="-162" rx="27" ry="18"/>
<text text-anchor="middle" x="45" y="-157.8" font-family="Times,serif" font-size="14.00" fill="#000000">4</text>
</g>
<!-- 6&#45;&#45;4 -->
<g id="edge3" class="edge">
<title>6&#45;&#45;4</title>
<path fill="none" stroke="#000000" d="M101.73,-218.73C89.512,-206.51 72.46,-189.46 60.247,-177.25"/>
</g>
<!-- e -->
<g id="node5" class="node">
<title>e</title>
<ellipse fill="none" stroke="#000000" cx="117" cy="-162" rx="27" ry="18"/>
<text text-anchor="middle" x="117" y="-157.8" font-family="Times,serif" font-size="14.00" fill="#000000">e</text>
</g>
<!-- 6&#45;&#45;e -->
<g id="edge4" class="edge">
<title>6&#45;&#45;e</title>
<path fill="none" stroke="#000000" d="M117,-215.83C117,-205 117,-191.29 117,-180.41"/>
</g>
<!-- z -->
<g id="node6" class="node">
<title>z</title>
<ellipse fill="none" stroke="#000000" cx="189" cy="-162" rx="27" ry="18"/>
<text text-anchor="middle" x="189" y="-157.8" font-family="Times,serif" font-size="14.00" fill="#000000">z</text>
</g>
<!-- 5&#45;&#45;z -->
<g id="edge5" class="edge">
<title>5&#45;&#45;z</title>
<path fill="none" stroke="#000000" d="M189,-215.83C189,-205 189,-191.29 189,-180.41"/>
</g>
<!-- 3 -->
<g id="node7" class="node">
<title>3</title>
<ellipse fill="none" stroke="#000000" cx="261" cy="-162" rx="27" ry="18"/>
<text text-anchor="middle" x="261" y="-157.8" font-family="Times,serif" font-size="14.00" fill="#000000">3</text>
</g>
<!-- 5&#45;&#45;3 -->
<g id="edge6" class="edge">
<title>5&#45;&#45;3</title>
<path fill="none" stroke="#000000" d="M204.27,-218.73C216.49,-206.51 233.54,-189.46 245.75,-177.25"/>
</g>
<!-- u -->
<g id="node8" class="node">
<title>u</title>
<ellipse fill="none" stroke="#000000" cx="27" cy="-90" rx="27" ry="18"/>
<text text-anchor="middle" x="27" y="-85.8" font-family="Times,serif" font-size="14.00" fill="#000000">u</text>
</g>
<!-- 4&#45;&#45;u -->
<g id="edge7" class="edge">
<title>4&#45;&#45;u</title>
<path fill="none" stroke="#000000" d="M40.551,-144.2C37.781,-133.13 34.232,-118.93 31.461,-107.84"/>
</g>
<!-- t -->
<g id="node9" class="node">
<title>t</title>
<ellipse fill="none" stroke="#000000" cx="99" cy="-90" rx="27" ry="18"/>
<text text-anchor="middle" x="99" y="-85.8" font-family="Times,serif" font-size="14.00" fill="#000000">t</text>
</g>
<!-- 4&#45;&#45;t -->
<g id="edge8" class="edge">
<title>4&#45;&#45;t</title>
<path fill="none" stroke="#000000" d="M57.253,-145.66C66.091,-133.88 77.969,-118.04 86.795,-106.27"/>
</g>
<!-- 1 -->
<g id="node10" class="node">
<title>1</title>
<ellipse fill="none" stroke="#000000" cx="207" cy="-90" rx="27" ry="18"/>
<text text-anchor="middle" x="207" y="-85.8" font-family="Times,serif" font-size="14.00" fill="#000000">1</text>
</g>
<!-- 3&#45;&#45;1 -->
<g id="edge9" class="edge">
<title>3&#45;&#45;1</title>
<path fill="none" stroke="#000000" d="M248.75,-145.66C239.91,-133.88 228.03,-118.04 219.2,-106.27"/>
</g>
<!-- 2 -->
<g id="node11" class="node">
<title>2</title>
<ellipse fill="none" stroke="#000000" cx="279" cy="-90" rx="27" ry="18"/>
<text text-anchor="middle" x="279" y="-85.8" font-family="Times,serif" font-size="14.00" fill="#000000">2</text>
</g>
<!-- 3&#45;&#45;2 -->
<g id="edge10" class="edge">
<title>3&#45;&#45;2</title>
<path fill="none" stroke="#000000" d="M265.45,-144.2C268.22,-133.13 271.77,-118.93 274.54,-107.84"/>
</g>
<!-- r -->
<g id="node12" class="node">
<title>r</title>
<ellipse fill="none" stroke="#000000" cx="135" cy="-18" rx="27" ry="18"/>
<text text-anchor="middle" x="135" y="-13.8" font-family="Times,serif" font-size="14.00" fill="#000000">r</text>
</g>
<!-- 1&#45;&#45;r -->
<g id="edge11" class="edge">
<title>1&#45;&#45;r</title>
<path fill="none" stroke="#000000" d="M191.73,-74.731C179.51,-62.512 162.46,-45.46 150.25,-33.247"/>
</g>
<!-- i -->
<g id="node13" class="node">
<title>i</title>
<ellipse fill="none" stroke="#000000" cx="207" cy="-18" rx="27" ry="18"/>
<text text-anchor="middle" x="207" y="-13.8" font-family="Times,serif" font-size="14.00" fill="#000000">i</text>
</g>
<!-- 1&#45;&#45;i -->
<g id="edge12" class="edge">
<title>1&#45;&#45;i</title>
<path fill="none" stroke="#000000" d="M207,-71.831C207,-61 207,-47.288 207,-36.413"/>
</g>
<!--   -->
<g id="node14" class="node">
<title> </title>
<ellipse fill="none" stroke="#000000" cx="279" cy="-18" rx="27" ry="18"/>
<text text-anchor="middle" x="279" y="-13.8" font-family="Times,serif" font-size="14.00" fill="#000000"> </text>
</g>
<!-- 2&#45;&#45;  -->
<g id="edge13" class="edge">
<title>2&#45;&#45; </title>
<path fill="none" stroke="#000000" d="M279,-71.831C279,-61 279,-47.288 279,-36.413"/>
</g>
<!-- y -->
<g id="node15" class="node">
<title>y</title>
<ellipse fill="none" stroke="#000000" cx="351" cy="-18" rx="27" ry="18"/>
<text text-anchor="middle" x="351" y="-13.8" font-family="Times,serif" font-size="14.00" fill="#000000">y</text>
</g>
<!-- 2&#45;&#45;y -->
<g id="edge14" class="edge">
<title>2&#45;&#45;y</title>
<path fill="none" stroke="#000000" d="M294.27,-74.731C306.49,-62.512 323.54,-45.46 335.75,-33.247"/>
</g>
</g>
</svg>
